<svg xmlns="http://www.w3.org/2000/svg" xmlns:xlink="http://www.w3.org/1999/xlink" contentStyleType="text/css" data-diagram-type="SEQUENCE" height="745px" preserveAspectRatio="none" style="width:1096px;height:745px;background:#FFFFFF;" version="1.1" viewBox="0 0 1096 745" width="1096px" zoomAndPan="magnify"><defs/><g><g><title>User</title><rect fill="#000000" fill-opacity="0.00000" height="583.3906" width="8" x="19.9551" y="81.2969"/><line style="stroke:#181818;stroke-width:0.5;stroke-dasharray:5.0,5.0;" x1="23" x2="23" y1="81.2969" y2="664.6875"/></g><g><title>UI</title><rect fill="#000000" fill-opacity="0.00000" height="583.3906" width="8" x="237.6538" y="81.2969"/><line style="stroke:#181818;stroke-width:0.5;stroke-dasharray:5.0,5.0;" x1="241.1538" x2="241.1538" y1="81.2969" y2="664.6875"/></g><g><title>API</title><rect fill="#000000" fill-opacity="0.00000" height="583.3906" width="8" x="441.502" y="81.2969"/><line style="stroke:#181818;stroke-width:0.5;stroke-dasharray:5.0,5.0;" x1="445.002" x2="445.002" y1="81.2969" y2="664.6875"/></g><g><title>Service</title><rect fill="#000000" fill-opacity="0.00000" height="583.3906" width="8" x="645.3501" y="81.2969"/><line style="stroke:#181818;stroke-width:0.5;stroke-dasharray:5.0,5.0;" x1="648.4795" x2="648.4795" y1="81.2969" y2="664.6875"/></g><g><title>SystemUser</title><rect fill="#000000" fill-opacity="0.00000" height="583.3906" width="8" x="878.4482" y="81.2969"/><line style="stroke:#181818;stroke-width:0.5;stroke-dasharray:5.0,5.0;" x1="882.3901" x2="882.3901" y1="81.2969" y2="664.6875"/></g><g><title>Redis</title><rect fill="#000000" fill-opacity="0.00000" height="583.3906" width="8" x="1057.7627" y="81.2969"/><line style="stroke:#181818;stroke-width:0.5;stroke-dasharray:5.0,5.0;" x1="1061.5571" x2="1061.5571" y1="81.2969" y2="664.6875"/></g><g class="participant participant-head" data-participant="user"><text fill="#000000" font-family="sans-serif" font-size="14" lengthAdjust="spacing" textLength="31.9102" x="5" y="77.9951">User</text><ellipse cx="23.9551" cy="13.5" fill="#E2E2F0" rx="8" ry="8" style="stroke:#181818;stroke-width:0.5;"/><path d="M23.9551,21.5 L23.9551,48.5 M10.9551,29.5 L36.9551,29.5 M23.9551,48.5 L10.9551,63.5 M23.9551,48.5 L36.9551,63.5" fill="none" style="stroke:#181818;stroke-width:0.5;"/></g><g class="participant participant-tail" data-participant="user"><text fill="#000000" font-family="sans-serif" font-size="14" lengthAdjust="spacing" textLength="31.9102" x="5" y="676.6826">User</text><ellipse cx="23.9551" cy="688.4844" fill="#E2E2F0" rx="8" ry="8" style="stroke:#181818;stroke-width:0.5;"/><path d="M23.9551,696.4844 L23.9551,723.4844 M10.9551,704.4844 L36.9551,704.4844 M23.9551,723.4844 L10.9551,738.4844 M23.9551,723.4844 L36.9551,738.4844" fill="none" style="stroke:#181818;stroke-width:0.5;"/></g><g class="participant participant-head" data-participant="ui"><text fill="#000000" font-family="sans-serif" font-size="14" lengthAdjust="spacing" textLength="14.376" x="231.4658" y="77.9951">UI</text><path d="M221.1538,37 L221.1538,61 M221.1538,49 L238.1538,49" fill="none" style="stroke:#181818;stroke-width:0.5;"/><ellipse cx="250.1538" cy="49" fill="#E2E2F0" rx="12" ry="12" style="stroke:#181818;stroke-width:0.5;"/></g><g class="participant participant-tail" data-participant="ui"><text fill="#000000" font-family="sans-serif" font-size="14" lengthAdjust="spacing" textLength="14.376" x="231.4658" y="676.6826">UI</text><path d="M221.1538,683.9844 L221.1538,707.9844 M221.1538,695.9844 L238.1538,695.9844" fill="none" style="stroke:#181818;stroke-width:0.5;"/><ellipse cx="250.1538" cy="695.9844" fill="#E2E2F0" rx="12" ry="12" style="stroke:#181818;stroke-width:0.5;"/></g><g class="participant participant-head" data-participant="api"><text fill="#000000" font-family="sans-serif" font-size="14" lengthAdjust="spacing" textLength="22.1484" x="431.4277" y="77.9951">API</text><path d="M425.002,37 L425.002,61 M425.002,49 L442.002,49" fill="none" style="stroke:#181818;stroke-width:0.5;"/><ellipse cx="454.002" cy="49" fill="#E2E2F0" rx="12" ry="12" style="stroke:#181818;stroke-width:0.5;"/></g><g class="participant participant-tail" data-participant="api"><text fill="#000000" font-family="sans-serif" font-size="14" lengthAdjust="spacing" textLength="22.1484" x="431.4277" y="676.6826">API</text><path d="M425.002,683.9844 L425.002,707.9844 M425.002,695.9844 L442.002,695.9844" fill="none" style="stroke:#181818;stroke-width:0.5;"/><ellipse cx="454.002" cy="695.9844" fill="#E2E2F0" rx="12" ry="12" style="stroke:#181818;stroke-width:0.5;"/></g><g class="participant participant-head" data-participant="service"><text fill="#000000" font-family="sans-serif" font-size="14" lengthAdjust="spacing" textLength="51.7412" x="620.4795" y="77.9951">Service</text><ellipse cx="649.3501" cy="49" fill="#E2E2F0" rx="12" ry="12" style="stroke:#181818;stroke-width:0.5;"/><polygon fill="#181818" points="645.3501,37,651.3501,32,649.3501,37,651.3501,42,645.3501,37" style="stroke:#181818;stroke-width:1;"/></g><g class="participant participant-tail" data-participant="service"><text fill="#000000" font-family="sans-serif" font-size="14" lengthAdjust="spacing" textLength="51.7412" x="620.4795" y="676.6826">Service</text><ellipse cx="649.3501" cy="695.9844" fill="#E2E2F0" rx="12" ry="12" style="stroke:#181818;stroke-width:0.5;"/><polygon fill="#181818" points="645.3501,683.9844,651.3501,678.9844,649.3501,683.9844,651.3501,688.9844,645.3501,683.9844" style="stroke:#181818;stroke-width:1;"/></g><g class="participant participant-head" data-participant="su"><text fill="#000000" font-family="sans-serif" font-size="14" lengthAdjust="spacing" textLength="84.1162" x="837.3901" y="77.9951">SystemUser</text><ellipse cx="882.4482" cy="49" fill="#E2E2F0" rx="12" ry="12" style="stroke:#181818;stroke-width:0.5;"/><line style="stroke:#181818;stroke-width:0.5;" x1="870.4482" x2="894.4482" y1="63" y2="63"/></g><g class="participant participant-tail" data-participant="su"><text fill="#000000" font-family="sans-serif" font-size="14" lengthAdjust="spacing" textLength="84.1162" x="837.3901" y="676.6826">SystemUser</text><ellipse cx="882.4482" cy="695.9844" fill="#E2E2F0" rx="12" ry="12" style="stroke:#181818;stroke-width:0.5;"/><line style="stroke:#181818;stroke-width:0.5;" x1="870.4482" x2="894.4482" y1="709.9844" y2="709.9844"/></g><g class="participant participant-head" data-participant="redis"><text fill="#000000" font-family="sans-serif" font-size="14" lengthAdjust="spacing" textLength="38.4111" x="1039.5571" y="77.9951">Redis</text><path d="M1043.7627,29 C1043.7627,19 1061.7627,19 1061.7627,19 C1061.7627,19 1079.7627,19 1079.7627,29 L1079.7627,55 C1079.7627,65 1061.7627,65 1061.7627,65 C1061.7627,65 1043.7627,65 1043.7627,55 L1043.7627,29" fill="#E2E2F0" style="stroke:#181818;stroke-width:1.5;"/><path d="M1043.7627,29 C1043.7627,39 1061.7627,39 1061.7627,39 C1061.7627,39 1079.7627,39 1079.7627,29" fill="none" style="stroke:#181818;stroke-width:1.5;"/></g><g class="participant participant-tail" data-participant="redis"><text fill="#000000" font-family="sans-serif" font-size="14" lengthAdjust="spacing" textLength="38.4111" x="1039.5571" y="676.6826">Redis</text><path d="M1043.7627,689.9844 C1043.7627,679.9844 1061.7627,679.9844 1061.7627,679.9844 C1061.7627,679.9844 1079.7627,679.9844 1079.7627,689.9844 L1079.7627,715.9844 C1079.7627,725.9844 1061.7627,725.9844 1061.7627,725.9844 C1061.7627,725.9844 1043.7627,725.9844 1043.7627,715.9844 L1043.7627,689.9844" fill="#E2E2F0" style="stroke:#181818;stroke-width:1.5;"/><path d="M1043.7627,689.9844 C1043.7627,699.9844 1061.7627,699.9844 1061.7627,699.9844 C1061.7627,699.9844 1079.7627,699.9844 1079.7627,689.9844" fill="none" style="stroke:#181818;stroke-width:1.5;"/></g><g class="message" data-participant-1="user" data-participant-2="ui"><polygon fill="#181818" points="229.6538,108.4297,239.6538,112.4297,229.6538,116.4297,233.6538,112.4297" style="stroke:#181818;stroke-width:1;"/><line style="stroke:#181818;stroke-width:1;" x1="23.9551" x2="235.6538" y1="112.4297" y2="112.4297"/><text fill="#000000" font-family="sans-serif" font-size="13" lengthAdjust="spacing" textLength="155.4541" x="30.9551" y="107.3638">Navigate to the website</text></g><g class="message" data-participant-1="ui" data-participant-2="user"><polygon fill="#181818" points="34.9551,137.5625,24.9551,141.5625,34.9551,145.5625,30.9551,141.5625" style="stroke:#181818;stroke-width:1;"/><line style="stroke:#181818;stroke-width:1;" x1="28.9551" x2="240.6538" y1="141.5625" y2="141.5625"/><text fill="#000000" font-family="sans-serif" font-size="13" lengthAdjust="spacing" textLength="131.3521" x="40.9551" y="136.4966">Display login screen</text></g><g class="message" data-participant-1="user" data-participant-2="ui"><polygon fill="#181818" points="229.6538,166.6953,239.6538,170.6953,229.6538,174.6953,233.6538,170.6953" style="stroke:#181818;stroke-width:1;"/><line style="stroke:#181818;stroke-width:1;" x1="23.9551" x2="235.6538" y1="170.6953" y2="170.6953"/><text fill="#000000" font-family="sans-serif" font-size="13" lengthAdjust="spacing" textLength="128.3433" x="30.9551" y="165.6294">Select login/sign-up</text></g><g class="message" data-participant-1="ui" data-participant-2="api"><polygon fill="#181818" points="433.502,195.8281,443.502,199.8281,433.502,203.8281,437.502,199.8281" style="stroke:#181818;stroke-width:1;"/><line style="stroke:#181818;stroke-width:1;" x1="241.6538" x2="439.502" y1="199.8281" y2="199.8281"/><text fill="#000000" font-family="sans-serif" font-size="13" lengthAdjust="spacing" textLength="141.5591" x="248.6538" y="194.7622">Request for OAuth uri</text></g><g class="message" data-participant-1="api" data-participant-2="service"><polygon fill="#181818" points="637.3501,224.9609,647.3501,228.9609,637.3501,232.9609,641.3501,228.9609" style="stroke:#181818;stroke-width:1;"/><line style="stroke:#181818;stroke-width:1;" x1="445.502" x2="643.3501" y1="228.9609" y2="228.9609"/><text fill="#000000" font-family="sans-serif" font-size="13" lengthAdjust="spacing" textLength="141.5591" x="452.502" y="223.895">Request for OAuth uri</text></g><g class="message" data-participant-1="service" data-participant-2="service"><line style="stroke:#181818;stroke-width:1;" x1="649.3501" x2="691.3501" y1="258.0938" y2="258.0938"/><line style="stroke:#181818;stroke-width:1;" x1="691.3501" x2="691.3501" y1="258.0938" y2="271.0938"/><line style="stroke:#181818;stroke-width:1;" x1="650.3501" x2="691.3501" y1="271.0938" y2="271.0938"/><polygon fill="#181818" points="660.3501,267.0938,650.3501,271.0938,660.3501,275.0938,656.3501,271.0938" style="stroke:#181818;stroke-width:1;"/><text fill="#000000" font-family="sans-serif" font-size="13" lengthAdjust="spacing" textLength="125.4424" x="656.3501" y="253.0278">Compute OAuth uri</text></g><g class="message" data-participant-1="service" data-participant-2="api"><polygon fill="#181818" points="456.502,296.2266,446.502,300.2266,456.502,304.2266,452.502,300.2266" style="stroke:#181818;stroke-width:1;"/><line style="stroke:#181818;stroke-width:1;" x1="450.502" x2="648.3501" y1="300.2266" y2="300.2266"/><text fill="#000000" font-family="sans-serif" font-size="13" lengthAdjust="spacing" textLength="179.8481" x="462.502" y="295.1606">Return computed OAuth uri</text></g><g class="message" data-participant-1="api" data-participant-2="ui"><polygon fill="#181818" points="252.6538,325.3594,242.6538,329.3594,252.6538,333.3594,248.6538,329.3594" style="stroke:#181818;stroke-width:1;"/><line style="stroke:#181818;stroke-width:1;" x1="246.6538" x2="444.502" y1="329.3594" y2="329.3594"/><text fill="#000000" font-family="sans-serif" font-size="13" lengthAdjust="spacing" textLength="179.8481" x="258.6538" y="324.2935">Return computed OAuth uri</text></g><g class="message" data-participant-1="ui" data-participant-2="user"><polygon fill="#181818" points="34.9551,354.4922,24.9551,358.4922,34.9551,362.4922,30.9551,358.4922" style="stroke:#181818;stroke-width:1;"/><line style="stroke:#181818;stroke-width:1;" x1="28.9551" x2="240.6538" y1="358.4922" y2="358.4922"/><text fill="#000000" font-family="sans-serif" font-size="13" lengthAdjust="spacing" textLength="147.1577" x="40.9551" y="353.4263">Display OAuth screens</text></g><g class="message" data-participant-1="user" data-participant-2="user"><line style="stroke:#181818;stroke-width:1;" x1="23.9551" x2="65.9551" y1="387.625" y2="387.625"/><line style="stroke:#181818;stroke-width:1;" x1="65.9551" x2="65.9551" y1="387.625" y2="400.625"/><line style="stroke:#181818;stroke-width:1;" x1="24.9551" x2="65.9551" y1="400.625" y2="400.625"/><polygon fill="#181818" points="34.9551,396.625,24.9551,400.625,34.9551,404.625,30.9551,400.625" style="stroke:#181818;stroke-width:1;"/><text fill="#000000" font-family="sans-serif" font-size="13" lengthAdjust="spacing" textLength="180.248" x="30.9551" y="382.5591">Run through OAuth screens</text></g><g class="message" data-participant-1="user" data-participant-2="ui"><polygon fill="#181818" points="229.6538,425.7578,239.6538,429.7578,229.6538,433.7578,233.6538,429.7578" style="stroke:#181818;stroke-width:1;"/><line style="stroke:#181818;stroke-width:1;" x1="23.9551" x2="235.6538" y1="429.7578" y2="429.7578"/><text fill="#000000" font-family="sans-serif" font-size="13" lengthAdjust="spacing" textLength="193.6987" x="30.9551" y="424.6919">Hit final button on OAuth flow</text></g><g class="message" data-participant-1="ui" data-participant-2="api"><polygon fill="#181818" points="433.502,454.8906,443.502,458.8906,433.502,462.8906,437.502,458.8906" style="stroke:#181818;stroke-width:1;"/><line style="stroke:#181818;stroke-width:1;" x1="241.6538" x2="439.502" y1="458.8906" y2="458.8906"/><text fill="#000000" font-family="sans-serif" font-size="13" lengthAdjust="spacing" textLength="156.9648" x="248.6538" y="453.8247">Send OAuth information</text></g><g class="message" data-participant-1="api" data-participant-2="service"><polygon fill="#181818" points="637.3501,484.0234,647.3501,488.0234,637.3501,492.0234,641.3501,488.0234" style="stroke:#181818;stroke-width:1;"/><line style="stroke:#181818;stroke-width:1;" x1="445.502" x2="643.3501" y1="488.0234" y2="488.0234"/><text fill="#000000" font-family="sans-serif" font-size="13" lengthAdjust="spacing" textLength="156.9648" x="452.502" y="482.9575">Send OAuth information</text></g><g class="message" data-participant-1="service" data-participant-2="service"><line style="stroke:#181818;stroke-width:1;" x1="649.3501" x2="691.3501" y1="517.1563" y2="517.1563"/><line style="stroke:#181818;stroke-width:1;" x1="691.3501" x2="691.3501" y1="517.1563" y2="530.1563"/><line style="stroke:#181818;stroke-width:1;" x1="650.3501" x2="691.3501" y1="530.1563" y2="530.1563"/><polygon fill="#181818" points="660.3501,526.1563,650.3501,530.1563,660.3501,534.1563,656.3501,530.1563" style="stroke:#181818;stroke-width:1;"/><text fill="#000000" font-family="sans-serif" font-size="13" lengthAdjust="spacing" textLength="111.5474" x="656.3501" y="512.0903">Process use-case</text></g><g class="message" data-participant-1="service" data-participant-2="su"><polygon fill="#181818" points="870.4482,555.2891,880.4482,559.2891,870.4482,563.2891,874.4482,559.2891" style="stroke:#181818;stroke-width:1;"/><line style="stroke:#181818;stroke-width:1;" x1="649.3501" x2="876.4482" y1="559.2891" y2="559.2891"/><text fill="#000000" font-family="sans-serif" font-size="13" lengthAdjust="spacing" textLength="209.0981" x="656.3501" y="554.2231">Upsert internal user information</text></g><g class="message" data-participant-1="su" data-participant-2="redis"><polygon fill="#181818" points="1049.7627,584.4219,1059.7627,588.4219,1049.7627,592.4219,1053.7627,588.4219" style="stroke:#181818;stroke-width:1;"/><line style="stroke:#181818;stroke-width:1;" x1="882.4482" x2="1055.7627" y1="588.4219" y2="588.4219"/><text fill="#000000" font-family="sans-serif" font-size="13" lengthAdjust="spacing" textLength="155.3145" x="889.4482" y="583.356">Persist user information</text></g><g class="message" data-participant-1="service" data-participant-2="ui"><polygon fill="#181818" points="252.6538,613.5547,242.6538,617.5547,252.6538,621.5547,248.6538,617.5547" style="stroke:#181818;stroke-width:1;"/><line style="stroke:#181818;stroke-width:1;" x1="246.6538" x2="648.3501" y1="617.5547" y2="617.5547"/><text fill="#000000" font-family="sans-serif" font-size="13" lengthAdjust="spacing" textLength="150.8457" x="258.6538" y="612.4888">Return successful code</text></g><g class="message" data-participant-1="ui" data-participant-2="user"><polygon fill="#181818" points="34.9551,642.6875,24.9551,646.6875,34.9551,650.6875,30.9551,646.6875" style="stroke:#181818;stroke-width:1;"/><line style="stroke:#181818;stroke-width:1;" x1="28.9551" x2="240.6538" y1="646.6875" y2="646.6875"/><text fill="#000000" font-family="sans-serif" font-size="13" lengthAdjust="spacing" textLength="145.1392" x="40.9551" y="641.6216">Redirect user to home</text></g><!--SRC=[VPB1QiCm38RlVWgzGDazXy7O3jjbAmrz0CTH4q5gPxRKahUVxAIqeUqWa21z_9B-_DPnYB1F6C4c47sR9eXlRPnW_rLgTAsyRKl9ZcHSy1p303N64pdCvJH_6lHCF44z9SRZHJg9QItRnYQ47RQKSZ7c3sFoMDYywgWAlks9Eii8781xX3CsYHYDK26KhE23qZZO2ORGaOVa8g9VYTGueEEv_vAeyniP5mNTlT85VWKJmq5l_taJxa4Y6MrbOZdZ6RMqL-HxE8wYEp-abeaiqOERmVP-glmBFRf-xixNf-lvXTc9L_TYaAv_nkcyJzBZoDi16c4E7lIPwSCGphU6rUWlwv1NFuwMAVWxnvvWZopRnk0mbSXjd8PY1Ka5-r4Bh3ACCMzOzbw9IaPBWbGDOoBzLVVKLVN6uIGk3p_8e6Qtwt3bSCQSdgAbAUp34Vy0]--></g></svg>