<svg xmlns="http://www.w3.org/2000/svg" xmlns:xlink="http://www.w3.org/1999/xlink" contentStyleType="text/css" data-diagram-type="SEQUENCE" height="182px" preserveAspectRatio="none" style="width:395px;height:182px;background:#FFFFFF;" version="1.1" viewBox="0 0 395 182" width="395px" zoomAndPan="magnify"><defs/><g><g><title>User</title><rect fill="#000000" fill-opacity="0.00000" height="20" width="8" x="19.9551" y="81.2969"/><line style="stroke:#181818;stroke-width:0.5;stroke-dasharray:5.0,5.0;" x1="23" x2="23" y1="81.2969" y2="101.2969"/></g><g><title>UI</title><rect fill="#000000" fill-opacity="0.00000" height="20" width="8" x="73.4102" y="81.2969"/><line style="stroke:#181818;stroke-width:0.5;stroke-dasharray:5.0,5.0;" x1="76.9102" x2="76.9102" y1="81.2969" y2="101.2969"/></g><g><title>API</title><rect fill="#000000" fill-opacity="0.00000" height="20" width="8" x="132.4102" y="81.2969"/><line style="stroke:#181818;stroke-width:0.5;stroke-dasharray:5.0,5.0;" x1="135.9102" x2="135.9102" y1="81.2969" y2="101.2969"/></g><g><title>Service</title><rect fill="#000000" fill-opacity="0.00000" height="20" width="8" x="195.7808" y="81.2969"/><line style="stroke:#181818;stroke-width:0.5;stroke-dasharray:5.0,5.0;" x1="198.9102" x2="198.9102" y1="81.2969" y2="101.2969"/></g><g><title>SystemUser</title><rect fill="#000000" fill-opacity="0.00000" height="20" width="8" x="279.7095" y="81.2969"/><line style="stroke:#181818;stroke-width:0.5;stroke-dasharray:5.0,5.0;" x1="283.6514" x2="283.6514" y1="81.2969" y2="101.2969"/></g><g><title>Redis</title><rect fill="#000000" fill-opacity="0.00000" height="20" width="8" x="356.9731" y="81.2969"/><line style="stroke:#181818;stroke-width:0.5;stroke-dasharray:5.0,5.0;" x1="360.7676" x2="360.7676" y1="81.2969" y2="101.2969"/></g><g class="participant participant-head" data-participant="user"><text fill="#000000" font-family="sans-serif" font-size="14" lengthAdjust="spacing" textLength="31.9102" x="5" y="77.9951">User</text><ellipse cx="23.9551" cy="13.5" fill="#E2E2F0" rx="8" ry="8" style="stroke:#181818;stroke-width:0.5;"/><path d="M23.9551,21.5 L23.9551,48.5 M10.9551,29.5 L36.9551,29.5 M23.9551,48.5 L10.9551,63.5 M23.9551,48.5 L36.9551,63.5" fill="none" style="stroke:#181818;stroke-width:0.5;"/></g><g class="participant participant-tail" data-participant="user"><text fill="#000000" font-family="sans-serif" font-size="14" lengthAdjust="spacing" textLength="31.9102" x="5" y="113.292">User</text><ellipse cx="23.9551" cy="125.0938" fill="#E2E2F0" rx="8" ry="8" style="stroke:#181818;stroke-width:0.5;"/><path d="M23.9551,133.0938 L23.9551,160.0938 M10.9551,141.0938 L36.9551,141.0938 M23.9551,160.0938 L10.9551,175.0938 M23.9551,160.0938 L36.9551,175.0938" fill="none" style="stroke:#181818;stroke-width:0.5;"/></g><g class="participant participant-head" data-participant="ui"><text fill="#000000" font-family="sans-serif" font-size="14" lengthAdjust="spacing" textLength="14.376" x="67.2222" y="77.9951">UI</text><path d="M56.9102,37 L56.9102,61 M56.9102,49 L73.9102,49" fill="none" style="stroke:#181818;stroke-width:0.5;"/><ellipse cx="85.9102" cy="49" fill="#E2E2F0" rx="12" ry="12" style="stroke:#181818;stroke-width:0.5;"/></g><g class="participant participant-tail" data-participant="ui"><text fill="#000000" font-family="sans-serif" font-size="14" lengthAdjust="spacing" textLength="14.376" x="67.2222" y="113.292">UI</text><path d="M56.9102,120.5938 L56.9102,144.5938 M56.9102,132.5938 L73.9102,132.5938" fill="none" style="stroke:#181818;stroke-width:0.5;"/><ellipse cx="85.9102" cy="132.5938" fill="#E2E2F0" rx="12" ry="12" style="stroke:#181818;stroke-width:0.5;"/></g><g class="participant participant-head" data-participant="api"><text fill="#000000" font-family="sans-serif" font-size="14" lengthAdjust="spacing" textLength="22.1484" x="122.3359" y="77.9951">API</text><path d="M115.9102,37 L115.9102,61 M115.9102,49 L132.9102,49" fill="none" style="stroke:#181818;stroke-width:0.5;"/><ellipse cx="144.9102" cy="49" fill="#E2E2F0" rx="12" ry="12" style="stroke:#181818;stroke-width:0.5;"/></g><g class="participant participant-tail" data-participant="api"><text fill="#000000" font-family="sans-serif" font-size="14" lengthAdjust="spacing" textLength="22.1484" x="122.3359" y="113.292">API</text><path d="M115.9102,120.5938 L115.9102,144.5938 M115.9102,132.5938 L132.9102,132.5938" fill="none" style="stroke:#181818;stroke-width:0.5;"/><ellipse cx="144.9102" cy="132.5938" fill="#E2E2F0" rx="12" ry="12" style="stroke:#181818;stroke-width:0.5;"/></g><g class="participant participant-head" data-participant="service"><text fill="#000000" font-family="sans-serif" font-size="14" lengthAdjust="spacing" textLength="51.7412" x="170.9102" y="77.9951">Service</text><ellipse cx="199.7808" cy="49" fill="#E2E2F0" rx="12" ry="12" style="stroke:#181818;stroke-width:0.5;"/><polygon fill="#181818" points="195.7808,37,201.7808,32,199.7808,37,201.7808,42,195.7808,37" style="stroke:#181818;stroke-width:1;"/></g><g class="participant participant-tail" data-participant="service"><text fill="#000000" font-family="sans-serif" font-size="14" lengthAdjust="spacing" textLength="51.7412" x="170.9102" y="113.292">Service</text><ellipse cx="199.7808" cy="132.5938" fill="#E2E2F0" rx="12" ry="12" style="stroke:#181818;stroke-width:0.5;"/><polygon fill="#181818" points="195.7808,120.5938,201.7808,115.5938,199.7808,120.5938,201.7808,125.5938,195.7808,120.5938" style="stroke:#181818;stroke-width:1;"/></g><g class="participant participant-head" data-participant="su"><text fill="#000000" font-family="sans-serif" font-size="14" lengthAdjust="spacing" textLength="84.1162" x="238.6514" y="77.9951">SystemUser</text><ellipse cx="283.7095" cy="49" fill="#E2E2F0" rx="12" ry="12" style="stroke:#181818;stroke-width:0.5;"/><line style="stroke:#181818;stroke-width:0.5;" x1="271.7095" x2="295.7095" y1="63" y2="63"/></g><g class="participant participant-tail" data-participant="su"><text fill="#000000" font-family="sans-serif" font-size="14" lengthAdjust="spacing" textLength="84.1162" x="238.6514" y="113.292">SystemUser</text><ellipse cx="283.7095" cy="132.5938" fill="#E2E2F0" rx="12" ry="12" style="stroke:#181818;stroke-width:0.5;"/><line style="stroke:#181818;stroke-width:0.5;" x1="271.7095" x2="295.7095" y1="146.5938" y2="146.5938"/></g><g class="participant participant-head" data-participant="redis"><text fill="#000000" font-family="sans-serif" font-size="14" lengthAdjust="spacing" textLength="38.4111" x="338.7676" y="77.9951">Redis</text><path d="M342.9731,29 C342.9731,19 360.9731,19 360.9731,19 C360.9731,19 378.9731,19 378.9731,29 L378.9731,55 C378.9731,65 360.9731,65 360.9731,65 C360.9731,65 342.9731,65 342.9731,55 L342.9731,29" fill="#E2E2F0" style="stroke:#181818;stroke-width:1.5;"/><path d="M342.9731,29 C342.9731,39 360.9731,39 360.9731,39 C360.9731,39 378.9731,39 378.9731,29" fill="none" style="stroke:#181818;stroke-width:1.5;"/></g><g class="participant participant-tail" data-participant="redis"><text fill="#000000" font-family="sans-serif" font-size="14" lengthAdjust="spacing" textLength="38.4111" x="338.7676" y="113.292">Redis</text><path d="M342.9731,126.5938 C342.9731,116.5938 360.9731,116.5938 360.9731,116.5938 C360.9731,116.5938 378.9731,116.5938 378.9731,126.5938 L378.9731,152.5938 C378.9731,162.5938 360.9731,162.5938 360.9731,162.5938 C360.9731,162.5938 342.9731,162.5938 342.9731,152.5938 L342.9731,126.5938" fill="#E2E2F0" style="stroke:#181818;stroke-width:1.5;"/><path d="M342.9731,126.5938 C342.9731,136.5938 360.9731,136.5938 360.9731,136.5938 C360.9731,136.5938 378.9731,136.5938 378.9731,126.5938" fill="none" style="stroke:#181818;stroke-width:1.5;"/></g><!--SRC=[HSmn3e0W38NXdLFqAevkHk812dHeec3QOiBj5OnnUd- -uM6q8h0f2Q12VTQ5KdD2QR3Dm_YNQHc49xjOiadPmPDS7Acplkae6ri3tzJe-AwrkeI60PLWfSJQKNhS]--></g></svg>