<svg xmlns="http://www.w3.org/2000/svg" xmlns:xlink="http://www.w3.org/1999/xlink" contentStyleType="text/css" data-diagram-type="SEQUENCE" height="425px" preserveAspectRatio="none" style="width:703px;height:425px;background:#FFFFFF;" version="1.1" viewBox="0 0 703 425" width="703px" zoomAndPan="magnify"><defs/><g><g><title>User</title><rect fill="#000000" fill-opacity="0.00000" height="262.9297" width="8" x="19.9551" y="81.2969"/><line style="stroke:#181818;stroke-width:0.5;stroke-dasharray:5.0,5.0;" x1="23" x2="23" y1="81.2969" y2="344.2266"/></g><g><title>UI</title><rect fill="#000000" fill-opacity="0.00000" height="262.9297" width="8" x="284.9438" y="81.2969"/><line style="stroke:#181818;stroke-width:0.5;stroke-dasharray:5.0,5.0;" x1="288.4438" x2="288.4438" y1="81.2969" y2="344.2266"/></g><g><title>API</title><rect fill="#000000" fill-opacity="0.00000" height="262.9297" width="8" x="673.2969" y="81.2969"/><line style="stroke:#181818;stroke-width:0.5;stroke-dasharray:5.0,5.0;" x1="676.7969" x2="676.7969" y1="81.2969" y2="344.2266"/></g><g class="participant participant-head" data-participant="user"><text fill="#000000" font-family="sans-serif" font-size="14" lengthAdjust="spacing" textLength="31.9102" x="5" y="77.9951">User</text><ellipse cx="23.9551" cy="13.5" fill="#E2E2F0" rx="8" ry="8" style="stroke:#181818;stroke-width:0.5;"/><path d="M23.9551,21.5 L23.9551,48.5 M10.9551,29.5 L36.9551,29.5 M23.9551,48.5 L10.9551,63.5 M23.9551,48.5 L36.9551,63.5" fill="none" style="stroke:#181818;stroke-width:0.5;"/></g><g class="participant participant-tail" data-participant="user"><text fill="#000000" font-family="sans-serif" font-size="14" lengthAdjust="spacing" textLength="31.9102" x="5" y="356.2217">User</text><ellipse cx="23.9551" cy="368.0234" fill="#E2E2F0" rx="8" ry="8" style="stroke:#181818;stroke-width:0.5;"/><path d="M23.9551,376.0234 L23.9551,403.0234 M10.9551,384.0234 L36.9551,384.0234 M23.9551,403.0234 L10.9551,418.0234 M23.9551,403.0234 L36.9551,418.0234" fill="none" style="stroke:#181818;stroke-width:0.5;"/></g><g class="participant participant-head" data-participant="ui"><text fill="#000000" font-family="sans-serif" font-size="14" lengthAdjust="spacing" textLength="14.376" x="278.7559" y="77.9951">UI</text><path d="M268.4438,37 L268.4438,61 M268.4438,49 L285.4438,49" fill="none" style="stroke:#181818;stroke-width:0.5;"/><ellipse cx="297.4438" cy="49" fill="#E2E2F0" rx="12" ry="12" style="stroke:#181818;stroke-width:0.5;"/></g><g class="participant participant-tail" data-participant="ui"><text fill="#000000" font-family="sans-serif" font-size="14" lengthAdjust="spacing" textLength="14.376" x="278.7559" y="356.2217">UI</text><path d="M268.4438,363.5234 L268.4438,387.5234 M268.4438,375.5234 L285.4438,375.5234" fill="none" style="stroke:#181818;stroke-width:0.5;"/><ellipse cx="297.4438" cy="375.5234" fill="#E2E2F0" rx="12" ry="12" style="stroke:#181818;stroke-width:0.5;"/></g><g class="participant participant-head" data-participant="api"><text fill="#000000" font-family="sans-serif" font-size="14" lengthAdjust="spacing" textLength="22.1484" x="663.2227" y="77.9951">API</text><path d="M656.7969,37 L656.7969,61 M656.7969,49 L673.7969,49" fill="none" style="stroke:#181818;stroke-width:0.5;"/><ellipse cx="685.7969" cy="49" fill="#E2E2F0" rx="12" ry="12" style="stroke:#181818;stroke-width:0.5;"/></g><g class="participant participant-tail" data-participant="api"><text fill="#000000" font-family="sans-serif" font-size="14" lengthAdjust="spacing" textLength="22.1484" x="663.2227" y="356.2217">API</text><path d="M656.7969,363.5234 L656.7969,387.5234 M656.7969,375.5234 L673.7969,375.5234" fill="none" style="stroke:#181818;stroke-width:0.5;"/><ellipse cx="685.7969" cy="375.5234" fill="#E2E2F0" rx="12" ry="12" style="stroke:#181818;stroke-width:0.5;"/></g><g class="message" data-participant-1="api" data-participant-2="ui"><polygon fill="#181818" points="299.9438,108.4297,289.9438,112.4297,299.9438,116.4297,295.9438,112.4297" style="stroke:#181818;stroke-width:1;"/><line style="stroke:#181818;stroke-width:1;" x1="293.9438" x2="676.2969" y1="112.4297" y2="112.4297"/><text fill="#000000" font-family="sans-serif" font-size="13" lengthAdjust="spacing" textLength="127.6387" x="305.9438" y="107.3638">Returned OAuth Uri</text></g><g class="message" data-participant-1="ui" data-participant-2="ui"><line style="stroke:#181818;stroke-width:1;" x1="288.9438" x2="330.9438" y1="141.5625" y2="141.5625"/><line style="stroke:#181818;stroke-width:1;" x1="330.9438" x2="330.9438" y1="141.5625" y2="154.5625"/><line style="stroke:#181818;stroke-width:1;" x1="289.9438" x2="330.9438" y1="154.5625" y2="154.5625"/><polygon fill="#181818" points="299.9438,150.5625,289.9438,154.5625,299.9438,158.5625,295.9438,154.5625" style="stroke:#181818;stroke-width:1;"/><text fill="#000000" font-family="sans-serif" font-size="13" lengthAdjust="spacing" textLength="263.6436" x="295.9438" y="136.4966">Opens up a popup to run the OAuth flow</text></g><g class="message" data-participant-1="ui" data-participant-2="user"><polygon fill="#181818" points="34.9551,179.6953,24.9551,183.6953,34.9551,187.6953,30.9551,183.6953" style="stroke:#181818;stroke-width:1;"/><line style="stroke:#181818;stroke-width:1;" x1="28.9551" x2="287.9438" y1="183.6953" y2="183.6953"/><text fill="#000000" font-family="sans-serif" font-size="13" lengthAdjust="spacing" textLength="240.9888" x="40.9551" y="178.6294">Display to the user the OAuth screen</text></g><g class="message" data-participant-1="user" data-participant-2="ui"><polygon fill="#181818" points="276.9438,208.8281,286.9438,212.8281,276.9438,216.8281,280.9438,212.8281" style="stroke:#181818;stroke-width:1;"/><line style="stroke:#181818;stroke-width:1;" x1="23.9551" x2="282.9438" y1="212.8281" y2="212.8281"/><text fill="#000000" font-family="sans-serif" font-size="13" lengthAdjust="spacing" textLength="153.9307" x="30.9551" y="207.7622">Finishes the OAuth flow</text></g><g class="message" data-participant-1="ui" data-participant-2="ui"><line style="stroke:#181818;stroke-width:1;" x1="288.9438" x2="330.9438" y1="241.9609" y2="241.9609"/><line style="stroke:#181818;stroke-width:1;" x1="330.9438" x2="330.9438" y1="241.9609" y2="254.9609"/><line style="stroke:#181818;stroke-width:1;" x1="289.9438" x2="330.9438" y1="254.9609" y2="254.9609"/><polygon fill="#181818" points="299.9438,250.9609,289.9438,254.9609,299.9438,258.9609,295.9438,254.9609" style="stroke:#181818;stroke-width:1;"/><text fill="#000000" font-family="sans-serif" font-size="13" lengthAdjust="spacing" textLength="374.353" x="295.9438" y="236.895">Exchanges messages between popup and parent window</text></g><g class="message" data-participant-1="ui" data-participant-2="ui"><line style="stroke:#181818;stroke-width:1;" x1="288.9438" x2="330.9438" y1="284.0938" y2="284.0938"/><line style="stroke:#181818;stroke-width:1;" x1="330.9438" x2="330.9438" y1="284.0938" y2="297.0938"/><line style="stroke:#181818;stroke-width:1;" x1="289.9438" x2="330.9438" y1="297.0938" y2="297.0938"/><polygon fill="#181818" points="299.9438,293.0938,289.9438,297.0938,299.9438,301.0938,295.9438,297.0938" style="stroke:#181818;stroke-width:1;"/><text fill="#000000" font-family="sans-serif" font-size="13" lengthAdjust="spacing" textLength="140.7212" x="295.9438" y="279.0278">Closes popup window</text></g><g class="message" data-participant-1="ui" data-participant-2="api"><polygon fill="#181818" points="665.2969,322.2266,675.2969,326.2266,665.2969,330.2266,669.2969,326.2266" style="stroke:#181818;stroke-width:1;"/><line style="stroke:#181818;stroke-width:1;" x1="288.9438" x2="671.2969" y1="326.2266" y2="326.2266"/><text fill="#000000" font-family="sans-serif" font-size="13" lengthAdjust="spacing" textLength="256.6675" x="295.9438" y="321.1606">Sends to backend the code from OAuth</text></g><!--SRC=[TP1DRW8n38NtEOKlq0lC0WaLa5XHjPe3U1BJYJeuaPreuFOum_I7HJUnzVpv-IdeInBebGHGeLfrGweSK6xG7nSj_YhRjqN279sp1rusDkxWdKeLfW2dRIqZz19T_HcUCh6vP438ALij2QGob95M_Zob-Nl10dImYvedl3MoKKtyWwiN8dQBkjuuH8uwalvZQiJ-waVaJqCkf8gj6QZCPhIcGWwGKOWBp973q_BhbDGM7k3Jr3wXWm_Ye2tiWFxB-YM5Ju7WBEdoo7C7]--></g></svg>