<svg xmlns="http://www.w3.org/2000/svg" xmlns:xlink="http://www.w3.org/1999/xlink" contentStyleType="text/css" data-diagram-type="DESCRIPTION" height="465px" preserveAspectRatio="none" style="width:534px;height:465px;background:#FFFFFF;" version="1.1" viewBox="0 0 534 465" width="534px" zoomAndPan="magnify"><title>Application Architecture</title><defs/><g><text fill="#000000" font-family="sans-serif" font-size="14" font-weight="bold" lengthAdjust="spacing" textLength="192.5205" x="163.7397" y="22.9951">Application Architecture</text><!--cluster Frontend--><g class="cluster" data-entity="Frontend" data-source-line="3" data-uid="ent0002" id="cluster_Frontend"><path d="M58.5,43.2969 L131.7285,43.2969 A3.75,3.75 0 0 1 134.2285,45.7969 L141.2285,65.5938 L183.5,65.5938 A2.5,2.5 0 0 1 186,68.0938 L186,138.0969 A2.5,2.5 0 0 1 183.5,140.5969 L58.5,140.5969 A2.5,2.5 0 0 1 56,138.0969 L56,45.7969 A2.5,2.5 0 0 1 58.5,43.2969" fill="none" style="stroke:#000000;stroke-width:1.5;"/><line style="stroke:#000000;stroke-width:1.5;" x1="56" x2="141.2285" y1="65.5938" y2="65.5938"/><text fill="#000000" font-family="sans-serif" font-size="14" font-weight="bold" lengthAdjust="spacing" textLength="72.2285" x="60" y="58.292">Frontend</text></g><!--cluster Backend--><g class="cluster" data-entity="Backend" data-source-line="7" data-uid="ent0004" id="cluster_Backend"><path d="M8.5,189.5969 L76.7109,189.5969 A3.75,3.75 0 0 1 79.2109,192.0969 L86.2109,211.8938 L233.5,211.8938 A2.5,2.5 0 0 1 236,214.3938 L236,284.3869 A2.5,2.5 0 0 1 233.5,286.8869 L8.5,286.8869 A2.5,2.5 0 0 1 6,284.3869 L6,192.0969 A2.5,2.5 0 0 1 8.5,189.5969" fill="none" style="stroke:#000000;stroke-width:1.5;"/><line style="stroke:#000000;stroke-width:1.5;" x1="6" x2="86.2109" y1="211.8938" y2="211.8938"/><text fill="#000000" font-family="sans-serif" font-size="14" font-weight="bold" lengthAdjust="spacing" textLength="67.2109" x="10" y="204.592">Backend</text></g><!--cluster Database--><g class="cluster" data-entity="Database" data-source-line="11" data-uid="ent0006" id="cluster_Database"><path d="M66,345.8869 C66,335.8869 121,335.8869 121,335.8869 C121,335.8869 176,335.8869 176,345.8869 L176,438.1869 C176,448.1869 121,448.1869 121,448.1869 C121,448.1869 66,448.1869 66,438.1869 L66,345.8869" fill="none" style="stroke:#181818;stroke-width:1;"/><path d="M66,345.8869 C66,355.8869 121,355.8869 121,355.8869 C121,355.8869 176,355.8869 176,345.8869" fill="none" style="stroke:#181818;stroke-width:1;"/><text fill="#000000" font-family="sans-serif" font-size="14" font-weight="bold" lengthAdjust="spacing" textLength="74.5049" x="83.7476" y="370.882">Database</text></g><!--cluster Disk--><g class="cluster" data-entity="Disk" data-source-line="15" data-uid="ent0008" id="cluster_Disk"><path d="M315.5,350.8869 L350.5635,350.8869 A3.75,3.75 0 0 1 353.0635,353.3869 L360.0635,373.1838 L524.5,373.1838 A2.5,2.5 0 0 1 527,375.6838 L527,445.6869 A2.5,2.5 0 0 1 524.5,448.1869 L315.5,448.1869 A2.5,2.5 0 0 1 313,445.6869 L313,353.3869 A2.5,2.5 0 0 1 315.5,350.8869" fill="none" style="stroke:#000000;stroke-width:1.5;"/><line style="stroke:#000000;stroke-width:1.5;" x1="313" x2="360.0635" y1="373.1838" y2="373.1838"/><text fill="#000000" font-family="sans-serif" font-size="14" font-weight="bold" lengthAdjust="spacing" textLength="34.0635" x="317" y="365.882">Disk</text></g><!--entity frontend--><g class="entity" data-entity="frontend" data-source-line="4" data-uid="ent0003" id="entity_frontend"><rect fill="#F1F1F1" height="46.2969" rx="2.5" ry="2.5" style="stroke:#181818;stroke-width:0.5;" width="98.9326" x="71.53" y="78.2969"/><rect fill="#F1F1F1" height="10" style="stroke:#181818;stroke-width:0.5;" width="15" x="150.4626" y="83.2969"/><rect fill="#F1F1F1" height="2" style="stroke:#181818;stroke-width:0.5;" width="4" x="148.4626" y="85.2969"/><rect fill="#F1F1F1" height="2" style="stroke:#181818;stroke-width:0.5;" width="4" x="148.4626" y="89.2969"/><text fill="#000000" font-family="sans-serif" font-size="14" lengthAdjust="spacing" textLength="58.9326" x="86.53" y="111.292">React UI</text></g><!--entity modulith--><g class="entity" data-entity="modulith" data-source-line="8" data-uid="ent0005" id="entity_modulith"><rect fill="#F1F1F1" height="46.2969" rx="2.5" ry="2.5" style="stroke:#181818;stroke-width:0.5;" width="198.0742" x="21.96" y="224.5969"/><rect fill="#F1F1F1" height="10" style="stroke:#181818;stroke-width:0.5;" width="15" x="200.0342" y="229.5969"/><rect fill="#F1F1F1" height="2" style="stroke:#181818;stroke-width:0.5;" width="4" x="198.0342" y="231.5969"/><rect fill="#F1F1F1" height="2" style="stroke:#181818;stroke-width:0.5;" width="4" x="198.0342" y="235.5969"/><text fill="#000000" font-family="sans-serif" font-size="14" lengthAdjust="spacing" textLength="158.0742" x="36.96" y="257.592">.NET Modular Monolith</text></g><!--entity redis--><g class="entity" data-entity="redis" data-source-line="12" data-uid="ent0007" id="entity_redis"><rect fill="#F1F1F1" height="46.2969" rx="2.5" ry="2.5" style="stroke:#181818;stroke-width:0.5;" width="78.4111" x="81.79" y="385.8869"/><rect fill="#F1F1F1" height="10" style="stroke:#181818;stroke-width:0.5;" width="15" x="140.2011" y="390.8869"/><rect fill="#F1F1F1" height="2" style="stroke:#181818;stroke-width:0.5;" width="4" x="138.2011" y="392.8869"/><rect fill="#F1F1F1" height="2" style="stroke:#181818;stroke-width:0.5;" width="4" x="138.2011" y="396.8869"/><text fill="#000000" font-family="sans-serif" font-size="14" lengthAdjust="spacing" textLength="38.4111" x="96.79" y="418.882">Redis</text></g><!--entity redis_file--><g class="entity" data-entity="redis_file" data-source-line="16" data-uid="ent0009" id="entity_redis_file"><rect fill="#F1F1F1" height="46.2969" rx="2.5" ry="2.5" style="stroke:#181818;stroke-width:0.5;" width="181.5107" x="329.24" y="385.8869"/><rect fill="#F1F1F1" height="10" style="stroke:#181818;stroke-width:0.5;" width="15" x="490.7507" y="390.8869"/><rect fill="#F1F1F1" height="2" style="stroke:#181818;stroke-width:0.5;" width="4" x="488.7507" y="392.8869"/><rect fill="#F1F1F1" height="2" style="stroke:#181818;stroke-width:0.5;" width="4" x="488.7507" y="396.8869"/><text fill="#000000" font-family="sans-serif" font-size="14" lengthAdjust="spacing" textLength="141.5107" x="344.24" y="418.882">Redis Persistent File</text></g><!--link frontend to modulith--><g class="link" data-entity-1="frontend" data-entity-2="modulith" data-source-line="19" data-uid="lnk10" id="link_frontend_modulith"><path d="M121,124.9869 C121,152.0969 121,191.3169 121,218.3569" fill="none" id="frontend-to-modulith" style="stroke:#181818;stroke-width:1;"/><polygon fill="#181818" points="121,224.3569,125,215.3569,121,219.3569,117,215.3569,121,224.3569" style="stroke:#181818;stroke-width:1;"/><text fill="#000000" font-family="sans-serif" font-size="13" lengthAdjust="spacing" textLength="100.1216" x="122" y="169.6638">Sends requests</text></g><!--link modulith to redis--><g class="link" data-entity-1="modulith" data-entity-2="redis" data-source-line="20" data-uid="lnk11" id="link_modulith_redis"><path d="M121,271.2269 C121,301.4969 121,349.0669 121,379.4069" fill="none" id="modulith-to-redis" style="stroke:#181818;stroke-width:1;"/><polygon fill="#181818" points="121,385.4069,125,376.4069,121,380.4069,117,376.4069,121,385.4069" style="stroke:#181818;stroke-width:1;"/><text fill="#000000" font-family="sans-serif" font-size="13" lengthAdjust="spacing" textLength="119.4946" x="122" y="315.9538">Reads/Writes data</text></g><!--link redis to redis_file--><g class="link" data-entity-1="redis" data-entity-2="redis_file" data-source-line="21" data-uid="lnk12" id="link_redis_redis_file"><path d="M166.7,409.0369 C209.36,409.0369 266.58,409.0369 322.78,409.0369" fill="none" id="redis-redis_file" style="stroke:#181818;stroke-width:1;"/><polygon fill="#181818" points="160.7,409.0369,169.7,413.0369,165.7,409.0369,169.7,405.0369,160.7,409.0369" style="stroke:#181818;stroke-width:1;"/><polygon fill="#181818" points="328.78,409.0369,319.78,405.0369,323.78,409.0369,319.78,413.0369,328.78,409.0369" style="stroke:#181818;stroke-width:1;"/><text fill="#000000" font-family="sans-serif" font-size="13" lengthAdjust="spacing" textLength="133.561" x="178.23" y="402.1038">Reads/Writes to disk</text></g><!--SRC=[PP0nJmCn38Nt_0ehUs575L8HL6AWGXJ4W10AYOzQ3PThx9iG_nqx7DTAJB7zlXU_H4WomceOCiKWL7fOrRWZmIXZHUU64FVX0y6lQ-a5- -JXom6yF6280a-thn0OkabptoU6AosE_DdcvX7kIXfpg7hs9PFicldJXjgOEGK9xu7LVJrLyxf4tF1gbR5ToGchaiJxKmhkiJAnvX5OKyQZwwtJjbcdlB1ONCxxuGByLeS67qPaOUzcpS1sXr7wziJdprL_YS4YU_UhBV-ejkaVAWMIXVq1]--></g></svg>