<svg xmlns="http://www.w3.org/2000/svg" xmlns:xlink="http://www.w3.org/1999/xlink" contentStyleType="text/css" data-diagram-type="DESCRIPTION" height="389px" preserveAspectRatio="none" style="width:410px;height:389px;background:#FFFFFF;" version="1.1" viewBox="0 0 410 389" width="410px" zoomAndPan="magnify"><title>First Time User Use Case</title><defs/><g><text fill="#000000" font-family="sans-serif" font-size="14" font-weight="bold" lengthAdjust="spacing" textLength="197.0664" x="99.7468" y="22.9951">First Time User Use Case</text><!--cluster Google Auth--><g class="cluster" data-entity="Google Auth" data-source-line="4" data-uid="ent0003" id="cluster_Google Auth"><path d="M293.06,160.4669 L391.4379,160.4669 A3.75,3.75 0 0 1 393.9379,162.9669 L400.9379,182.7638 L401.06,182.7638 A2.5,2.5 0 0 1 403.56,185.2638 L403.56,285.2669 A2.5,2.5 0 0 1 401.06,287.7669 L293.06,287.7669 A2.5,2.5 0 0 1 290.56,285.2669 L290.56,162.9669 A2.5,2.5 0 0 1 293.06,160.4669 " fill="none" style="stroke:#000000;stroke-width:1.5;"/><line style="stroke:#000000;stroke-width:1.5;" x1="290.56" x2="400.9379" y1="182.7638" y2="182.7638"/><text fill="#000000" font-family="sans-serif" font-size="14" font-weight="bold" lengthAdjust="spacing" textLength="97.3779" x="294.56" y="175.462">Google Auth</text></g><!--cluster KakeiBro--><g class="cluster" data-entity="KakeiBro" data-source-line="7" data-uid="ent0005" id="cluster_KakeiBro"><path d="M67.06,43.2969 L139.1538,43.2969 A3.75,3.75 0 0 1 141.6538,45.7969 L148.6538,65.5938 L264.06,65.5938 A2.5,2.5 0 0 1 266.56,68.0938 L266.56,380.3369 A2.5,2.5 0 0 1 264.06,382.8369 L67.06,382.8369 A2.5,2.5 0 0 1 64.56,380.3369 L64.56,45.7969 A2.5,2.5 0 0 1 67.06,43.2969 " fill="none" style="stroke:#000000;stroke-width:1.5;"/><line style="stroke:#000000;stroke-width:1.5;" x1="64.56" x2="148.6538" y1="65.5938" y2="65.5938"/><text fill="#000000" font-family="sans-serif" font-size="14" font-weight="bold" lengthAdjust="spacing" textLength="71.0938" x="68.56" y="58.292">KakeiBro</text></g><!--entity oapi--><g class="entity" data-entity="oapi" data-source-line="5" data-uid="ent0004" id="entity_oapi"><ellipse cx="341.5553" cy="203.9669" fill="#F1F1F1" rx="8" ry="8" style="stroke:#181818;stroke-width:0.5;"/><path d="M341.5553,211.9669 L341.5553,238.9669 M328.5553,219.9669 L354.5553,219.9669 M341.5553,238.9669 L328.5553,253.9669 M341.5553,238.9669 L354.5553,253.9669 " fill="none" style="stroke:#181818;stroke-width:0.5;"/><text fill="#000000" font-family="sans-serif" font-size="14" lengthAdjust="spacing" textLength="70.4307" x="306.34" y="268.462">OAuth API</text></g><g class="entity" data-entity="UC1" data-source-line="8" data-uid="ent0006" id="entity_UC1"><ellipse cx="165.5621" cy="97.3133" fill="#F1F1F1" rx="83.1321" ry="19.0264" style="stroke:#181818;stroke-width:0.5;"/><text fill="#000000" font-family="sans-serif" font-size="14" lengthAdjust="spacing" textLength="125.9863" x="102.0204" y="100.3457">Login with Google</text></g><g class="entity" data-entity="UC2" data-source-line="9" data-uid="ent0007" id="entity_UC2"><ellipse cx="165.5571" cy="233.6123" fill="#F1F1F1" rx="85.2771" ry="19.4554" style="stroke:#181818;stroke-width:0.5;"/><text fill="#000000" font-family="sans-serif" font-size="14" lengthAdjust="spacing" textLength="130.9629" x="100.0757" y="236.459">Do Google Sign-up</text></g><g class="entity" data-entity="UC3" data-source-line="10" data-uid="ent0008" id="entity_UC3"><ellipse cx="165.5567" cy="349.2922" fill="#F1F1F1" rx="75.6767" ry="17.5353" style="stroke:#181818;stroke-width:0.5;"/><text fill="#000000" font-family="sans-serif" font-size="14" lengthAdjust="spacing" textLength="107.748" x="108.6827" y="353.0398">Visualize Home</text></g><!--entity g--><g class="entity" data-entity="g" data-source-line="3" data-uid="ent0002" id="entity_g"><ellipse cx="26.5591" cy="67.6769" fill="#F1F1F1" rx="8" ry="8" style="stroke:#181818;stroke-width:0.5;"/><path d="M26.5591,75.6769 L26.5591,102.6769 M13.5591,83.6769 L39.5591,83.6769 M26.5591,102.6769 L13.5591,117.6769 M26.5591,102.6769 L39.5591,117.6769 " fill="none" style="stroke:#181818;stroke-width:0.5;"/><text fill="#000000" font-family="sans-serif" font-size="14" lengthAdjust="spacing" textLength="41.1182" x="6" y="132.172">Guest</text></g><!--link g to UC1--><g class="link" data-entity-1="g" data-entity-2="UC1" data-source-line="13" data-uid="lnk9" id="link_g_UC1"><path d="M47.46,97.3169 C59,97.3169 64.53,97.3169 76.06,97.3169 " fill="none" id="g-to-UC1" style="stroke:#181818;stroke-width:1;"/><polygon fill="#181818" points="82.06,97.3169,73.06,93.3169,77.06,97.3169,73.06,101.3169,82.06,97.3169" style="stroke:#181818;stroke-width:1;"/></g><!--link UC1 to UC2--><g class="link" data-entity-1="UC1" data-entity-2="UC2" data-source-line="14" data-uid="lnk10" id="link_UC1_UC2"><path d="M165.56,116.7169 C165.56,142.2869 165.56,182.3369 165.56,208.0169 " fill="none" id="UC1-to-UC2" style="stroke:#181818;stroke-width:1;"/><polygon fill="#181818" points="165.56,214.0169,169.56,205.0169,165.56,209.0169,161.56,205.0169,165.56,214.0169" style="stroke:#181818;stroke-width:1;"/></g><!--link oapi to UC2--><g class="link" data-entity-1="oapi" data-entity-2="UC2" data-source-line="15" data-uid="lnk11" id="link_oapi_UC2"><path d="M299.89,233.6169 C281.64,233.6169 275.4,233.6169 257.15,233.6169 " fill="none" id="oapi-UC2" style="stroke:#181818;stroke-width:1;"/><polygon fill="#181818" points="305.89,233.6169,296.89,229.6169,300.89,233.6169,296.89,237.6169,305.89,233.6169" style="stroke:#181818;stroke-width:1;"/><polygon fill="#181818" points="251.15,233.6169,260.15,237.6169,256.15,233.6169,260.15,229.6169,251.15,233.6169" style="stroke:#181818;stroke-width:1;"/></g><!--link UC2 to UC3--><g class="link" data-entity-1="UC2" data-entity-2="UC3" data-source-line="16" data-uid="lnk12" id="link_UC2_UC3"><path d="M165.56,253.3869 C165.56,275.0869 165.56,304.4669 165.56,325.3569 " fill="none" id="UC2-to-UC3" style="stroke:#181818;stroke-width:1;"/><polygon fill="#181818" points="165.56,331.3569,169.56,322.3569,165.56,326.3569,161.56,322.3569,165.56,331.3569" style="stroke:#181818;stroke-width:1;"/></g><!--SRC=[LOxB2i9034NtynMNsNTXtOfG5HyeA6ZT3pMCGMtAF10K_zrfVQ2B36Hopaq2XpDXoiu7xFX2A3svzi7OU5BAL44SPf7It7XOrPZgP2n1pqHiKeiOZXft1RnGlMv_K6mMkXN4DAmUNsjfJiGZ9vq0H4zLMWEz4iirhfpCLsudb-FUFpQHznXRjdKMcpUM_sDxzj6S-KQOo-KJrKzdA8lCiJs6RDY5fq9sa6lTzRbghyNW1yaJalyW_IS0]--></g></svg>