<svg xmlns="http://www.w3.org/2000/svg" xmlns:xlink="http://www.w3.org/1999/xlink" contentStyleType="text/css" data-diagram-type="DESCRIPTION" height="386px" preserveAspectRatio="none" style="width:400px;height:386px;background:#FFFFFF;" version="1.1" viewBox="0 0 400 386" width="400px" zoomAndPan="magnify"><title>First Time User Use Case</title><defs/><g><g class="title" data-source-line="1"><text fill="#000000" font-family="sans-serif" font-size="14" font-weight="bold" lengthAdjust="spacing" textLength="197.0664" x="94.7468" y="22.9951">First Time User Use Case</text></g><!--cluster Google Auth--><g class="cluster" data-entity="Google Auth" data-source-line="4" data-uid="ent0003" id="cluster_Google Auth"><path d="M283.06,159.4569 L381.4379,159.4569 A3.75,3.75 0 0 1 383.9379,161.9569 L390.9379,181.7538 L391.06,181.7538 A2.5,2.5 0 0 1 393.56,184.2538 L393.56,284.2469 A2.5,2.5 0 0 1 391.06,286.7469 L283.06,286.7469 A2.5,2.5 0 0 1 280.56,284.2469 L280.56,161.9569 A2.5,2.5 0 0 1 283.06,159.4569" fill="none" style="stroke:#000000;stroke-width:1.5;"/><line style="stroke:#000000;stroke-width:1.5;" x1="280.56" x2="390.9379" y1="181.7538" y2="181.7538"/><text fill="#000000" font-family="sans-serif" font-size="14" font-weight="bold" lengthAdjust="spacing" textLength="97.3779" x="284.56" y="174.452">Google Auth</text></g><!--cluster KakeiBro--><g class="cluster" data-entity="KakeiBro" data-source-line="7" data-uid="ent0005" id="cluster_KakeiBro"><path d="M67.06,43.2969 L139.1538,43.2969 A3.75,3.75 0 0 1 141.6538,45.7969 L148.6538,65.5938 L254.06,65.5938 A2.5,2.5 0 0 1 256.56,68.0938 L256.56,377.2669 A2.5,2.5 0 0 1 254.06,379.7669 L67.06,379.7669 A2.5,2.5 0 0 1 64.56,377.2669 L64.56,45.7969 A2.5,2.5 0 0 1 67.06,43.2969" fill="none" style="stroke:#000000;stroke-width:1.5;"/><line style="stroke:#000000;stroke-width:1.5;" x1="64.56" x2="148.6538" y1="65.5938" y2="65.5938"/><text fill="#000000" font-family="sans-serif" font-size="14" font-weight="bold" lengthAdjust="spacing" textLength="71.0938" x="68.56" y="58.292">KakeiBro</text></g><!--entity oapi--><g class="entity" data-entity="oapi" data-source-line="5" data-uid="ent0004" id="entity_oapi"><ellipse cx="331.5553" cy="202.9569" fill="#F1F1F1" rx="8" ry="8" style="stroke:#181818;stroke-width:0.5;"/><path d="M331.5553,210.9569 L331.5553,237.9569 M318.5553,218.9569 L344.5553,218.9569 M331.5553,237.9569 L318.5553,252.9569 M331.5553,237.9569 L344.5553,252.9569" fill="none" style="stroke:#181818;stroke-width:0.5;"/><text fill="#000000" font-family="sans-serif" font-size="14" lengthAdjust="spacing" textLength="70.4307" x="296.34" y="267.452">OAuth API</text></g><!--entity UC1--><g class="entity" data-entity="UC1" data-source-line="8" data-uid="ent0006" id="entity_UC1"><ellipse cx="160.5604" cy="96.311" fill="#F1F1F1" rx="78.0204" ry="18.0041" style="stroke:#181818;stroke-width:0.5;"/><text fill="#000000" font-family="sans-serif" font-size="14" lengthAdjust="spacing" textLength="125.9863" x="97.5673" y="100.9594">Login with Google</text></g><!--entity UC2--><g class="entity" data-entity="UC2" data-source-line="9" data-uid="ent0007" id="entity_UC2"><ellipse cx="160.5616" cy="232.6012" fill="#F1F1F1" rx="80.1216" ry="18.4243" style="stroke:#181818;stroke-width:0.5;"/><text fill="#000000" font-family="sans-serif" font-size="14" lengthAdjust="spacing" textLength="130.9629" x="95.0802" y="237.2496">Do Google Sign-up</text></g><!--entity UC3--><g class="entity" data-entity="UC3" data-source-line="10" data-uid="ent0008" id="entity_UC3"><ellipse cx="160.5551" cy="347.2559" fill="#F1F1F1" rx="70.5451" ry="16.509" style="stroke:#181818;stroke-width:0.5;"/><text fill="#000000" font-family="sans-serif" font-size="14" lengthAdjust="spacing" textLength="107.748" x="106.681" y="351.9043">Visualize Home</text></g><!--entity g--><g class="entity" data-entity="g" data-source-line="3" data-uid="ent0002" id="entity_g"><ellipse cx="26.5591" cy="66.6569" fill="#F1F1F1" rx="8" ry="8" style="stroke:#181818;stroke-width:0.5;"/><path d="M26.5591,74.6569 L26.5591,101.6569 M13.5591,82.6569 L39.5591,82.6569 M26.5591,101.6569 L13.5591,116.6569 M26.5591,101.6569 L39.5591,116.6569" fill="none" style="stroke:#181818;stroke-width:0.5;"/><text fill="#000000" font-family="sans-serif" font-size="14" lengthAdjust="spacing" textLength="41.1182" x="6" y="131.152">Guest</text></g><!--link g to UC1--><g class="link" data-entity-1="g" data-entity-2="UC1" data-source-line="13" data-uid="lnk9" id="link_g_UC1"><path d="M47.5,96.3069 C59.13,96.3069 64.76,96.3069 76.39,96.3069" fill="none" id="g-to-UC1" style="stroke:#181818;stroke-width:1;"/><polygon fill="#181818" points="82.39,96.3069,73.39,92.3069,77.39,96.3069,73.39,100.3069,82.39,96.3069" style="stroke:#181818;stroke-width:1;"/></g><!--link UC1 to UC2--><g class="link" data-entity-1="UC1" data-entity-2="UC2" data-source-line="14" data-uid="lnk10" id="link_UC1_UC2"><path d="M160.56,114.5869 C160.56,140.2269 160.56,182.1069 160.56,207.9569" fill="none" id="UC1-to-UC2" style="stroke:#181818;stroke-width:1;"/><polygon fill="#181818" points="160.56,213.9569,164.56,204.9569,160.56,208.9569,156.56,204.9569,160.56,213.9569" style="stroke:#181818;stroke-width:1;"/></g><!--link oapi to UC2--><g class="link" data-entity-1="oapi" data-entity-2="UC2" data-source-line="15" data-uid="lnk11" id="link_oapi_UC2"><path d="M289.85,232.5969 C271.58,232.5969 265.32,232.5969 247.05,232.5969" fill="none" id="oapi-UC2" style="stroke:#181818;stroke-width:1;"/><polygon fill="#181818" points="295.85,232.5969,286.85,228.5969,290.85,232.5969,286.85,236.5969,295.85,232.5969" style="stroke:#181818;stroke-width:1;"/><polygon fill="#181818" points="241.05,232.5969,250.05,236.5969,246.05,232.5969,250.05,228.5969,241.05,232.5969" style="stroke:#181818;stroke-width:1;"/></g><!--link UC2 to UC3--><g class="link" data-entity-1="UC2" data-entity-2="UC3" data-source-line="16" data-uid="lnk12" id="link_UC2_UC3"><path d="M160.56,251.4469 C160.56,273.1669 160.56,303.4969 160.56,324.3169" fill="none" id="UC2-to-UC3" style="stroke:#181818;stroke-width:1;"/><polygon fill="#181818" points="160.56,330.3169,164.56,321.3169,160.56,325.3169,156.56,321.3169,160.56,330.3169" style="stroke:#181818;stroke-width:1;"/></g><!--SRC=[LOxB2i9034NtynMNsNTXtOfG5HyeA6ZT3pMCGMtAF10K_zrfVQ2B36Hopaq2XpDXoiu7xFX2A3svzi7OU5BAL44SPf7It7XOrPZgP2n1pqHiKeiOZXft1RnGlMv_K6mMkXN4DAmUNsjfJiGZ9vq0H4zLMWEz4iirhfpCLsudb-FUFpQHznXRjdKMcpUM_sDxzj6S-KQOo-KJrKzdA8lCiJs6RDY5fq9sa6lTzRbghyNW1yaJalyW_IS0]--></g></svg>