<svg xmlns="http://www.w3.org/2000/svg" xmlns:xlink="http://www.w3.org/1999/xlink" contentStyleType="text/css" data-diagram-type="DESCRIPTION" height="386px" preserveAspectRatio="none" style="width:538px;height:386px;background:#FFFFFF;" version="1.1" viewBox="0 0 538 386" width="538px" zoomAndPan="magnify"><title>Internal User Use Case</title><defs/><g><g class="title" data-source-line="1"><text fill="#000000" font-family="sans-serif" font-size="14" font-weight="bold" lengthAdjust="spacing" textLength="179.9492" x="172.1654" y="22.9951">Internal User Use Case</text></g><!--cluster Google Auth--><g class="cluster" data-entity="Google Auth" data-source-line="4" data-uid="ent0003" id="cluster_Google Auth"><path d="M420.78,158.9969 L519.1579,158.9969 A3.75,3.75 0 0 1 521.6579,161.4969 L528.6579,181.2938 L528.78,181.2938 A2.5,2.5 0 0 1 531.28,183.7938 L531.28,283.7869 A2.5,2.5 0 0 1 528.78,286.2869 L420.78,286.2869 A2.5,2.5 0 0 1 418.28,283.7869 L418.28,161.4969 A2.5,2.5 0 0 1 420.78,158.9969" fill="none" style="stroke:#000000;stroke-width:1.5;"/><line style="stroke:#000000;stroke-width:1.5;" x1="418.28" x2="528.6579" y1="181.2938" y2="181.2938"/><text fill="#000000" font-family="sans-serif" font-size="14" font-weight="bold" lengthAdjust="spacing" textLength="97.3779" x="422.28" y="173.992">Google Auth</text></g><!--cluster KakeiBro--><g class="cluster" data-entity="KakeiBro" data-source-line="7" data-uid="ent0005" id="cluster_KakeiBro"><path d="M114.78,43.2969 L186.8738,43.2969 A3.75,3.75 0 0 1 189.3738,45.7969 L196.3738,65.5938 L391.78,65.5938 A2.5,2.5 0 0 1 394.28,68.0938 L394.28,376.8069 A2.5,2.5 0 0 1 391.78,379.3069 L114.78,379.3069 A2.5,2.5 0 0 1 112.28,376.8069 L112.28,45.7969 A2.5,2.5 0 0 1 114.78,43.2969" fill="none" style="stroke:#000000;stroke-width:1.5;"/><line style="stroke:#000000;stroke-width:1.5;" x1="112.28" x2="196.3738" y1="65.5938" y2="65.5938"/><text fill="#000000" font-family="sans-serif" font-size="14" font-weight="bold" lengthAdjust="spacing" textLength="71.0938" x="116.28" y="58.292">KakeiBro</text></g><!--entity oapi--><g class="entity" data-entity="oapi" data-source-line="5" data-uid="ent0004" id="entity_oapi"><ellipse cx="469.2853" cy="202.4969" fill="#F1F1F1" rx="8" ry="8" style="stroke:#181818;stroke-width:0.5;"/><path d="M469.2853,210.4969 L469.2853,237.4969 M456.2853,218.4969 L482.2853,218.4969 M469.2853,237.4969 L456.2853,252.4969 M469.2853,237.4969 L482.2853,252.4969" fill="none" style="stroke:#181818;stroke-width:0.5;"/><text fill="#000000" font-family="sans-serif" font-size="14" lengthAdjust="spacing" textLength="70.4307" x="434.07" y="266.992">OAuth API</text></g><!--entity UC1--><g class="entity" data-entity="UC1" data-source-line="8" data-uid="ent0006" id="entity_UC1"><ellipse cx="230.2768" cy="95.8442" fill="#F1F1F1" rx="75.7368" ry="17.5474" style="stroke:#181818;stroke-width:0.5;"/><text fill="#000000" font-family="sans-serif" font-size="14" lengthAdjust="spacing" textLength="120.5107" x="170.0214" y="100.4927">Login with E-mail</text></g><!--entity UC2--><g class="entity" data-entity="UC2" data-source-line="9" data-uid="ent0007" id="entity_UC2"><ellipse cx="253.2757" cy="232.14" fill="#F1F1F1" rx="125.2657" ry="27.4531" style="stroke:#181818;stroke-width:0.5;"/><text fill="#000000" font-family="sans-serif" font-size="14" lengthAdjust="spacing" textLength="230.5557" x="137.9979" y="236.7885">Check and provide SystemToken</text></g><!--entity UC3--><g class="entity" data-entity="UC3" data-source-line="10" data-uid="ent0008" id="entity_UC3"><ellipse cx="253.2751" cy="346.7959" fill="#F1F1F1" rx="70.5451" ry="16.509" style="stroke:#181818;stroke-width:0.5;"/><text fill="#000000" font-family="sans-serif" font-size="14" lengthAdjust="spacing" textLength="107.748" x="199.401" y="351.4443">Visualize Home</text></g><!--entity iu--><g class="entity" data-entity="iu" data-source-line="3" data-uid="ent0002" id="entity_iu"><ellipse cx="51.2813" cy="66.1969" fill="#F1F1F1" rx="8" ry="8" style="stroke:#181818;stroke-width:0.5;"/><path d="M51.2813,74.1969 L51.2813,101.1969 M38.2813,82.1969 L64.2813,82.1969 M51.2813,101.1969 L38.2813,116.1969 M51.2813,101.1969 L64.2813,116.1969" fill="none" style="stroke:#181818;stroke-width:0.5;"/><text fill="#000000" font-family="sans-serif" font-size="14" lengthAdjust="spacing" textLength="90.5625" x="6" y="130.692">Internal User</text></g><!--link iu to UC1--><g class="link" data-entity-1="iu" data-entity-2="UC1" data-source-line="13" data-uid="lnk9" id="link_iu_UC1"><path d="M96.73,95.8469 C115.86,95.8469 128.99,95.8469 148.12,95.8469" fill="none" id="iu-to-UC1" style="stroke:#181818;stroke-width:1;"/><polygon fill="#181818" points="154.12,95.8469,145.12,91.8469,149.12,95.8469,145.12,99.8469,154.12,95.8469" style="stroke:#181818;stroke-width:1;"/></g><!--link UC1 to UC2--><g class="link" data-entity-1="UC1" data-entity-2="UC2" data-source-line="14" data-uid="lnk10" id="link_UC1_UC2"><path d="M233.19,113.8569 C237.1,136.6469 243.0562,171.4531 247.6762,198.4031" fill="none" id="UC1-to-UC2" style="stroke:#181818;stroke-width:1;"/><polygon fill="#181818" points="248.69,204.3169,251.1118,194.7704,247.8452,199.3888,243.2268,196.1221,248.69,204.3169" style="stroke:#181818;stroke-width:1;"/></g><!--link oapi to UC2--><g class="link" data-entity-1="oapi" data-entity-2="UC2" data-source-line="15" data-uid="lnk11" id="link_oapi_UC2"><path d="M427.66,232.1369 C409.44,232.1369 403.22,232.1369 385,232.1369" fill="none" id="oapi-UC2" style="stroke:#181818;stroke-width:1;"/><polygon fill="#181818" points="433.66,232.1369,424.66,228.1369,428.66,232.1369,424.66,236.1369,433.66,232.1369" style="stroke:#181818;stroke-width:1;"/><polygon fill="#181818" points="379,232.1369,388,236.1369,384,232.1369,388,228.1369,379,232.1369" style="stroke:#181818;stroke-width:1;"/></g><!--link UC2 to UC3--><g class="link" data-entity-1="UC2" data-entity-2="UC3" data-source-line="16" data-uid="lnk12" id="link_UC2_UC3"><path d="M253.28,259.8369 C253.28,281.6969 253.28,305.8869 253.28,324.0569" fill="none" id="UC2-to-UC3" style="stroke:#181818;stroke-width:1;"/><polygon fill="#181818" points="253.28,330.0569,257.28,321.0569,253.28,325.0569,249.28,321.0569,253.28,330.0569" style="stroke:#181818;stroke-width:1;"/></g><!--SRC=[LOvDIyH038RlyojUUk_1xbKMrYAwhB22hlVGXZQqdPJvS57nlpiTYcmF2IHvdYH1miWusi3EqeYBPxSarEJP66g2EXIRSG7oa6XcQWRg6CMJQfTs76Be2_mOOBNEImU7rsCsb6Onl__MYGQM1wTP0ABd9br4yQATM5mbcO_bH39c-LBVRR6wvsO0sHQpqqzf6MzVFl3qhWFRLQcsoeVuIADyCvvrufNPfPUCH9HEkZwK-tmf1SfMhpRNbLbUn_qDKYMaka5sVm00]--></g></svg>