<svg xmlns="http://www.w3.org/2000/svg" xmlns:xlink="http://www.w3.org/1999/xlink" contentStyleType="text/css" data-diagram-type="DESCRIPTION" height="389px" preserveAspectRatio="none" style="width:550px;height:389px;background:#FFFFFF;" version="1.1" viewBox="0 0 550 389" width="550px" zoomAndPan="magnify"><title>Internal User Use Case</title><defs/><g><text fill="#000000" font-family="sans-serif" font-size="14" font-weight="bold" lengthAdjust="spacing" textLength="179.9492" x="178.1654" y="22.9951">Internal User Use Case</text><!--cluster Google Auth--><g class="cluster" data-entity="Google Auth" data-source-line="4" data-uid="ent0003" id="cluster_Google Auth"><path d="M432.78,160.0069 L531.1579,160.0069 A3.75,3.75 0 0 1 533.6579,162.5069 L540.6579,182.3037 L540.78,182.3037 A2.5,2.5 0 0 1 543.28,184.8037 L543.28,284.8069 A2.5,2.5 0 0 1 540.78,287.3069 L432.78,287.3069 A2.5,2.5 0 0 1 430.28,284.8069 L430.28,162.5069 A2.5,2.5 0 0 1 432.78,160.0069 " fill="none" style="stroke:#000000;stroke-width:1.5;"/><line style="stroke:#000000;stroke-width:1.5;" x1="430.28" x2="540.6579" y1="182.3037" y2="182.3037"/><text fill="#000000" font-family="sans-serif" font-size="14" font-weight="bold" lengthAdjust="spacing" textLength="97.3779" x="434.28" y="175.002">Google Auth</text></g><!--cluster KakeiBro--><g class="cluster" data-entity="KakeiBro" data-source-line="7" data-uid="ent0005" id="cluster_KakeiBro"><path d="M114.78,43.2969 L186.8738,43.2969 A3.75,3.75 0 0 1 189.3738,45.7969 L196.3738,65.5938 L403.78,65.5938 A2.5,2.5 0 0 1 406.28,68.0938 L406.28,379.8769 A2.5,2.5 0 0 1 403.78,382.3769 L114.78,382.3769 A2.5,2.5 0 0 1 112.28,379.8769 L112.28,45.7969 A2.5,2.5 0 0 1 114.78,43.2969 " fill="none" style="stroke:#000000;stroke-width:1.5;"/><line style="stroke:#000000;stroke-width:1.5;" x1="112.28" x2="196.3738" y1="65.5938" y2="65.5938"/><text fill="#000000" font-family="sans-serif" font-size="14" font-weight="bold" lengthAdjust="spacing" textLength="71.0938" x="116.28" y="58.292">KakeiBro</text></g><!--entity oapi--><g class="entity" data-entity="oapi" data-source-line="5" data-uid="ent0004" id="entity_oapi"><ellipse cx="481.2853" cy="203.5069" fill="#F1F1F1" rx="8" ry="8" style="stroke:#181818;stroke-width:0.5;"/><path d="M481.2853,211.5069 L481.2853,238.5069 M468.2853,219.5069 L494.2853,219.5069 M481.2853,238.5069 L468.2853,253.5069 M481.2853,238.5069 L494.2853,253.5069 " fill="none" style="stroke:#181818;stroke-width:0.5;"/><text fill="#000000" font-family="sans-serif" font-size="14" lengthAdjust="spacing" textLength="70.4307" x="446.07" y="268.002">OAuth API</text></g><g class="entity" data-entity="UC1" data-source-line="8" data-uid="ent0006" id="entity_UC1"><ellipse cx="235.2831" cy="96.8615" fill="#F1F1F1" rx="80.8231" ry="18.5646" style="stroke:#181818;stroke-width:0.5;"/><text fill="#000000" font-family="sans-serif" font-size="14" lengthAdjust="spacing" textLength="120.5107" x="173.6677" y="100.1505">Login with E-mail</text></g><g class="entity" data-entity="UC2" data-source-line="9" data-uid="ent0007" id="entity_UC2"><ellipse cx="259.2784" cy="233.1546" fill="#F1F1F1" rx="130.9384" ry="28.5877" style="stroke:#181818;stroke-width:0.5;"/><text fill="#000000" font-family="sans-serif" font-size="14" lengthAdjust="spacing" textLength="230.5557" x="144.0006" y="236.0012">Check and provide SystemToken</text></g><g class="entity" data-entity="UC3" data-source-line="10" data-uid="ent0008" id="entity_UC3"><ellipse cx="259.2767" cy="348.8322" fill="#F1F1F1" rx="75.6767" ry="17.5353" style="stroke:#181818;stroke-width:0.5;"/><text fill="#000000" font-family="sans-serif" font-size="14" lengthAdjust="spacing" textLength="107.748" x="202.4027" y="352.5798">Visualize Home</text></g><!--entity iu--><g class="entity" data-entity="iu" data-source-line="3" data-uid="ent0002" id="entity_iu"><ellipse cx="51.2813" cy="67.2169" fill="#F1F1F1" rx="8" ry="8" style="stroke:#181818;stroke-width:0.5;"/><path d="M51.2813,75.2169 L51.2813,102.2169 M38.2813,83.2169 L64.2813,83.2169 M51.2813,102.2169 L38.2813,117.2169 M51.2813,102.2169 L64.2813,117.2169 " fill="none" style="stroke:#181818;stroke-width:0.5;"/><text fill="#000000" font-family="sans-serif" font-size="14" lengthAdjust="spacing" textLength="90.5625" x="6" y="131.712">Internal User</text></g><!--link iu to UC1--><g class="link" data-entity-1="iu" data-entity-2="UC1" data-source-line="13" data-uid="lnk9" id="link_iu_UC1"><path d="M96.92,96.8569 C116.02,96.8569 129.11,96.8569 148.21,96.8569 " fill="none" id="iu-to-UC1" style="stroke:#181818;stroke-width:1;"/><polygon fill="#181818" points="154.21,96.8569,145.21,92.8569,149.21,96.8569,145.21,100.8569,154.21,96.8569" style="stroke:#181818;stroke-width:1;"/></g><!--link UC1 to UC2--><g class="link" data-entity-1="UC1" data-entity-2="UC2" data-source-line="14" data-uid="lnk10" id="link_UC1_UC2"><path d="M238.47,115.6969 C242.51,138.3169 248.476,171.6602 253.226,198.2802 " fill="none" id="UC1-to-UC2" style="stroke:#181818;stroke-width:1;"/><polygon fill="#181818" points="254.28,204.1869,256.6368,194.6242,253.4017,199.2646,248.7612,196.0295,254.28,204.1869" style="stroke:#181818;stroke-width:1;"/></g><!--link oapi to UC2--><g class="link" data-entity-1="oapi" data-entity-2="UC2" data-source-line="15" data-uid="lnk11" id="link_oapi_UC2"><path d="M439.88,233.1569 C421.47,233.1569 415.07,233.1569 396.66,233.1569 " fill="none" id="oapi-UC2" style="stroke:#181818;stroke-width:1;"/><polygon fill="#181818" points="445.88,233.1569,436.88,229.1569,440.88,233.1569,436.88,237.1569,445.88,233.1569" style="stroke:#181818;stroke-width:1;"/><polygon fill="#181818" points="390.66,233.1569,399.66,237.1569,395.66,233.1569,399.66,229.1569,390.66,233.1569" style="stroke:#181818;stroke-width:1;"/></g><!--link UC2 to UC3--><g class="link" data-entity-1="UC2" data-entity-2="UC3" data-source-line="16" data-uid="lnk12" id="link_UC2_UC3"><path d="M259.28,261.9669 C259.28,283.5269 259.28,306.7069 259.28,324.8969 " fill="none" id="UC2-to-UC3" style="stroke:#181818;stroke-width:1;"/><polygon fill="#181818" points="259.28,330.8969,263.28,321.8969,259.28,325.8969,255.28,321.8969,259.28,330.8969" style="stroke:#181818;stroke-width:1;"/></g><!--SRC=[LOvDIyH038RlyojUUk_1xbKMrYAwhB22hlVGXZQqdPJvS57nlpiTYcmF2IHvdYH1miWusi3EqeYBPxSarEJP66g2EXIRSG7oa6XcQWRg6CMJQfTs76Be2_mOOBNEImU7rsCsb6Onl__MYGQM1wTP0ABd9br4yQATM5mbcO_bH39c-LBVRR6wvsO0sHQpqqzf6MzVFl3qhWFRLQcsoeVuIADyCvvrufNPfPUCH9HEkZwK-tmf1SfMhpRNbLbUn_qDKYMaka5sVm00]--></g></svg>